<svg width="26" height="26" viewBox="0 0 26 26" fill="none" xmlns="http://www.w3.org/2000/svg">
<path d="M1 3.4H0.75V3.65H1V3.4ZM3.4 3.4L3.62588 3.29286L3.55812 3.15H3.4V3.4ZM7.72 12.508L7.93896 12.6287L8.00074 12.5165L7.94588 12.4009L7.72 12.508ZM6.1 15.448L6.31709 15.5721L6.31896 15.5687L6.1 15.448ZM22.6 19V19.25H22.85V19H22.6ZM22.6 16.6H22.85V16.35H22.6V16.6ZM8.404 16.3L8.16146 16.2394L8.154 16.2692V16.3H8.404ZM8.44 16.156L8.22114 16.0352L8.20538 16.0637L8.19746 16.0954L8.44 16.156ZM9.52 14.2V13.95H9.37246L9.30114 14.0792L9.52 14.2ZM20.56 12.964L20.3411 12.8432L20.3408 12.8438L20.56 12.964ZM24.856 5.176L25.0749 5.29676L25.0759 5.29489L24.856 5.176ZM23.8 3.4L23.8006 3.15H23.8V3.4ZM6.052 3.4L5.82574 3.50634L5.89326 3.65H6.052V3.4ZM4.924 1L5.15026 0.89366L5.08274 0.75H4.924V1ZM8.20001 19.95C6.74031 19.95 5.56201 21.1436 5.56201 22.6H6.06201C6.06201 21.4164 7.01971 20.45 8.20001 20.45V19.95ZM5.56201 22.6C5.56201 24.0564 6.74031 25.25 8.20001 25.25V24.75C7.01971 24.75 6.06201 23.7836 6.06201 22.6H5.56201ZM8.20001 25.25C9.65808 25.25 10.85 24.0581 10.85 22.6H10.35C10.35 23.7819 9.38194 24.75 8.20001 24.75V25.25ZM10.85 22.6C10.85 21.1419 9.65808 19.95 8.20001 19.95V20.45C9.38194 20.45 10.35 21.4181 10.35 22.6H10.85ZM0.75 1V3.4H1.25V1H0.75ZM1 3.65H3.4V3.15H1V3.65ZM3.17412 3.50714L7.49412 12.6151L7.94588 12.4009L3.62588 3.29286L3.17412 3.50714ZM7.50104 12.3873L5.88104 15.3273L6.31896 15.5687L7.93896 12.6287L7.50104 12.3873ZM5.88294 15.324C5.66904 15.6983 5.55 16.1371 5.55 16.6H6.05C6.05 16.2229 6.14696 15.8697 6.31706 15.572L5.88294 15.324ZM5.55 16.6C5.55 18.0581 6.74193 19.25 8.2 19.25V18.75C7.01807 18.75 6.05 17.7819 6.05 16.6H5.55ZM8.2 19.25H22.6V18.75H8.2V19.25ZM22.85 19V16.6H22.35V19H22.85ZM22.6 16.35H8.704V16.85H22.6V16.35ZM8.704 16.35C8.68706 16.35 8.67543 16.3439 8.66778 16.3362C8.66013 16.3286 8.654 16.3169 8.654 16.3H8.154C8.154 16.6061 8.39793 16.85 8.704 16.85V16.35ZM8.64654 16.3606L8.68254 16.2166L8.19746 16.0954L8.16146 16.2394L8.64654 16.3606ZM8.65886 16.2768L9.73886 14.3208L9.30114 14.0792L8.22114 16.0352L8.65886 16.2768ZM9.52 14.45H18.46V13.95H9.52V14.45ZM18.46 14.45C19.4528 14.45 20.3281 13.9069 20.7792 13.0842L20.3408 12.8438C19.9759 13.5091 19.2672 13.95 18.46 13.95V14.45ZM20.7789 13.0848L25.0749 5.29675L24.6371 5.05525L20.3411 12.8432L20.7789 13.0848ZM25.0759 5.29489C25.3192 4.84497 25.308 4.30032 25.0466 3.8607L24.6169 4.11624C24.7884 4.40464 24.7957 4.76194 24.6361 5.05711L25.0759 5.29489ZM25.0466 3.8607C24.7852 3.42108 24.312 3.15118 23.8006 3.15L23.7994 3.65C24.135 3.65077 24.4454 3.82783 24.6169 4.11624L25.0466 3.8607ZM23.8 3.15H6.052V3.65H23.8V3.15ZM6.27826 3.29366L5.15026 0.89366L4.69774 1.10634L5.82574 3.50634L6.27826 3.29366ZM4.924 0.75H1V1.25H4.924V0.75ZM20.2 19.95C18.7403 19.95 17.562 21.1436 17.562 22.6H18.062C18.062 21.4164 19.0197 20.45 20.2 20.45V19.95ZM17.562 22.6C17.562 24.0564 18.7403 25.25 20.2 25.25V24.75C19.0197 24.75 18.062 23.7836 18.062 22.6H17.562ZM20.2 25.25C21.6581 25.25 22.85 24.0581 22.85 22.6H22.35C22.35 23.7819 21.3819 24.75 20.2 24.75V25.25ZM22.85 22.6C22.85 21.1419 21.6581 19.95 20.2 19.95V20.45C21.3819 20.45 22.35 21.4181 22.35 22.6H22.85Z" fill="#9B9B9B"/>
</svg>
