<svg width="12" height="10" viewBox="0 0 12 10" fill="none" xmlns="http://www.w3.org/2000/svg">
<path d="M5.9776 9.83759C5.90776 9.838 5.83852 9.82441 5.77386 9.79762C5.7092 9.77082 5.65039 9.73133 5.6008 9.68142L1.47722 5.49181C0.95997 4.96147 0.669834 4.24546 0.669834 3.49932C0.669834 2.75318 0.95997 2.03717 1.47722 1.50683C1.99851 0.979368 2.70465 0.683167 3.44083 0.683167C4.17701 0.683167 4.88315 0.979368 5.40444 1.50683C5.71963 1.82665 6.23558 1.82665 6.55076 1.50683C7.07206 0.979368 7.7782 0.683167 8.51438 0.683167C9.25055 0.683167 9.95669 0.979368 10.478 1.50683C10.9952 2.03717 11.2854 2.75318 11.2854 3.49932C11.2854 4.24546 10.9952 4.96147 10.478 5.49181L6.3544 9.68142C6.30481 9.73133 6.246 9.77082 6.18134 9.79762C6.11668 9.82441 6.04745 9.838 5.9776 9.83759Z" fill="#231E36" fill-opacity="0.7"/>
</svg>
