<svg width="30" height="30" viewBox="0 0 30 30" fill="none" xmlns="http://www.w3.org/2000/svg">
<path d="M15.1408 27L15.1408 26.75L15.1408 26.75L15.1408 27ZM5 21.5577L4.75003 21.554L4.74886 21.6314L4.79167 21.6959L5 21.5577ZM25.2817 21.5577L25.49 21.6959L25.5328 21.6314L25.5317 21.554L25.2817 21.5577ZM15.1408 3.25C17.8084 3.25 19.9613 5.40286 19.9613 8.07042H20.4613C20.4613 5.12672 18.0845 2.75 15.1408 2.75V3.25ZM19.9613 8.07042C19.9613 10.738 17.8084 12.8908 15.1408 12.8908V13.3908C18.0845 13.3908 20.4613 11.0141 20.4613 8.07042H19.9613ZM15.1408 12.8908C12.4733 12.8908 10.3204 10.738 10.3204 8.07042H9.82041C9.82041 11.0141 12.1971 13.3908 15.1408 13.3908V12.8908ZM10.3204 8.07042C10.3204 5.40286 12.4733 3.25 15.1408 3.25V2.75C12.1971 2.75 9.82041 5.12672 9.82041 8.07042H10.3204ZM15.1408 26.75C11.1459 26.75 7.41664 24.7486 5.20833 21.4195L4.79167 21.6959C7.09261 25.1647 10.9783 27.25 15.1408 27.25L15.1408 26.75ZM5.24997 21.5615C5.26129 20.8104 5.64322 20.1247 6.3015 19.5078C6.96083 18.8899 7.88044 18.3584 8.9183 17.9243C10.995 17.0557 13.4848 16.6021 15.1408 16.6021V16.1021C13.4166 16.1021 10.8613 16.5696 8.72537 17.463C7.65688 17.9099 6.67826 18.4695 5.9596 19.143C5.23988 19.8175 4.76406 20.6233 4.75003 21.554L5.24997 21.5615ZM15.1408 16.6021C16.7883 16.6021 19.2782 17.0556 21.3571 17.9243C22.3961 18.3584 23.3173 18.89 23.978 19.508C24.6376 20.125 25.0204 20.8107 25.0317 21.5615L25.5317 21.554C25.5176 20.6231 25.0405 19.8172 24.3195 19.1428C23.5996 18.4694 22.6194 17.9098 21.5499 17.463C19.412 16.5697 16.8567 16.1021 15.1408 16.1021V16.6021ZM25.0734 21.4195C22.865 24.7486 19.1358 26.75 15.1408 26.75L15.1408 27.25C19.3034 27.25 23.1891 25.1647 25.49 21.6959L25.0734 21.4195Z" fill="#9B9B9B"/>
</svg>
