<svg width="11" height="11" viewBox="0 0 11 11" fill="none" xmlns="http://www.w3.org/2000/svg">
<path d="M9.5724 2.92952L8.07051 1.42762C7.77222 1.12896 7.36753 0.960973 6.94541 0.960602H3.58074C3.15863 0.960973 2.75394 1.12896 2.45565 1.42762L0.953752 2.92952C0.655087 3.22781 0.487103 3.6325 0.486732 4.05461V8.92118C0.486732 9.34344 0.654472 9.7484 0.953051 10.047C1.25163 10.3456 1.65659 10.5133 2.07885 10.5133H8.44731C8.86957 10.5133 9.27453 10.3456 9.57311 10.047C9.87169 9.7484 10.0394 9.34344 10.0394 8.92118V4.05461C10.0391 3.6325 9.87107 3.22781 9.5724 2.92952ZM5.26308 7.85977C4.70007 7.85977 4.16012 7.63612 3.76202 7.23801C3.36391 6.8399 3.14026 6.29996 3.14026 5.73695C3.14026 5.5962 3.19617 5.46121 3.2957 5.36168C3.39522 5.26216 3.53021 5.20624 3.67096 5.20624C3.81171 5.20624 3.9467 5.26216 4.04623 5.36168C4.14575 5.46121 4.20167 5.5962 4.20167 5.73695C4.20167 6.01845 4.3135 6.28843 4.51255 6.48748C4.7116 6.68653 4.98158 6.79836 5.26308 6.79836C5.54458 6.79836 5.81456 6.68653 6.01361 6.48748C6.21266 6.28843 6.32449 6.01845 6.32449 5.73695C6.32449 5.5962 6.3804 5.46121 6.47993 5.36168C6.57946 5.26216 6.71444 5.20624 6.85519 5.20624C6.99595 5.20624 7.13093 5.26216 7.23046 5.36168C7.32999 5.46121 7.3859 5.5962 7.3859 5.73695C7.3859 6.29996 7.16225 6.8399 6.76414 7.23801C6.36603 7.63612 5.82609 7.85977 5.26308 7.85977ZM2.29644 3.08342L3.20394 2.17592C3.30564 2.07894 3.44023 2.02397 3.58074 2.02201H6.94541C7.08593 2.02397 7.22051 2.07894 7.32221 2.17592L8.22972 3.08342H2.29644Z" fill="white"/>
</svg>
